<?xml version="1.0" encoding="UTF-8"?>
<svg version="1.1" xmlns="http://www.w3.org/2000/svg" width="512" height="512">
	<path d="M0 0 C168.96 0 337.92 0 512 0 C512 168.96 512 337.92 512 512 C343.04 512 174.08 512 0 512 C0 343.04 0 174.08 0 0 Z " fill="#084887" transform="translate(0,0)"/>
	<path d="M0 0 C3.08340631 0.06539516 6.16160865 0.06341688 9.24560547 0.05322266 C24.50724477 0.14634695 37.69551224 3.03679525 52.06201172 8.06494141 C52.88813965 8.34112305 53.71426758 8.61730469 54.56542969 8.90185547 C71.23119574 14.50408246 85.92081452 23.41060179 99.06201172 35.06494141 C99.86767578 35.76232422 100.67333984 36.45970703 101.50341797 37.17822266 C103.36705855 38.79553857 105.21980259 40.42331665 107.06201172 42.06494141 C106.48617785 45.72932135 105.09040453 47.39902883 102.47607422 49.97558594 C101.71858887 50.729617 100.96110352 51.48364807 100.18066406 52.26052856 C99.35775879 53.06481293 98.53485352 53.86909729 97.68701172 54.69775391 C96.42751709 55.94732376 96.42751709 55.94732376 95.14257812 57.22213745 C92.45603973 59.88524166 89.75955917 62.53799307 87.06201172 65.18994141 C84.36620965 67.85072683 81.67253425 70.5136166 78.98144531 73.1791687 C77.30521791 74.83836765 75.62592563 76.49447684 73.94335938 78.14724731 C73.18587402 78.89497406 72.42838867 79.64270081 71.64794922 80.41308594 C70.64320557 81.40092575 70.64320557 81.40092575 69.61816406 82.40872192 C67.97621024 83.99776372 67.97621024 83.99776372 67.06201172 86.06494141 C63.48634196 85.49377315 62.02535804 84.28494836 59.62451172 81.62744141 C45.75137757 67.26617846 27.70947116 57.93941721 10.06201172 49.06494141 C8.54027344 48.28763672 8.54027344 48.28763672 6.98779297 47.49462891 C-2.99776399 42.85899808 -14.17430312 41.06522532 -24.93798828 39.06494141 C-25.9418457 38.87367676 -26.94570312 38.68241211 -27.97998047 38.48535156 C-36.06753691 37.07822181 -44.01087007 36.75508624 -52.19384766 36.80419922 C-54.30416817 36.8148967 -56.4136312 36.80424605 -58.52392578 36.79150391 C-69.80272695 36.77904078 -81.2373342 37.19410317 -91.93798828 41.06494141 C-85.36551386 42.23504102 -78.82925298 43.18837738 -72.18798828 43.87744141 C-64.56425852 44.76455316 -57.45394513 46.73083756 -50.21777344 49.26708984 C-48.6035803 49.83200558 -46.98565283 50.38630266 -45.36523438 50.93310547 C-32.5601221 55.25571899 -20.61778058 60.25427318 -8.93798828 67.06494141 C-7.80103516 67.72365234 -6.66408203 68.38236328 -5.49267578 69.06103516 C9.51374655 78.04680853 23.20437856 88.6811511 36.18701172 100.37744141 C36.75621338 100.88130371 37.32541504 101.38516602 37.91186523 101.90429688 C40.78135278 104.53272112 42.35192212 106.24400732 43.06201172 110.06494141 C42.57598732 110.48009538 42.08996292 110.89524935 41.58921051 111.32298374 C36.58459252 115.64336422 31.83879863 120.15005114 27.17724609 124.83618164 C26.43480652 125.57847519 25.69236694 126.32076874 24.9274292 127.08555603 C22.50115895 129.51251676 20.07843897 131.94298823 17.65576172 134.37353516 C15.96347595 136.06768818 14.27096764 137.76161894 12.57824707 139.45533752 C8.14393814 143.8934474 3.71264174 148.33455319 -0.71801758 152.77630615 C-5.2478462 157.31640119 -9.78054019 161.85363357 -14.31298828 166.39111328 C-23.19078255 175.2796021 -32.06549223 184.17116405 -40.93798828 193.06494141 C-61.97871245 183.29138232 -78.4953506 148.73508202 -88.93798828 129.06494141 C-89.26178467 128.48800537 -89.58558105 127.91106934 -89.91918945 127.31665039 C-93.35373033 120.93921534 -95.50404315 114.03961792 -97.7746582 107.1862793 C-98.49197995 105.02804081 -99.2250642 102.87561909 -99.95947266 100.72314453 C-104.15350775 88.26118252 -107.24341819 75.84706667 -107.62548828 62.62744141 C-107.65964844 61.78890625 -107.69380859 60.95037109 -107.72900391 60.08642578 C-107.80927451 58.07966061 -107.8753248 56.07233353 -107.93798828 54.06494141 C-108.59316801 56.52110355 -109.23715924 58.97939278 -109.87548828 61.43994141 C-110.05789062 62.11927734 -110.24029297 62.79861328 -110.42822266 63.49853516 C-115.81761085 84.46815466 -114.43601316 108.71054196 -110.25048828 129.81494141 C-110.0067749 131.05526123 -109.76306152 132.29558105 -109.51196289 133.57348633 C-107.14309068 144.60553438 -103.2884165 154.97806984 -98.12548828 165.00244141 C-97.78420898 165.67082031 -97.44292969 166.33919922 -97.09130859 167.02783203 C-96.05149847 169.04634315 -94.99755179 171.0567398 -93.93798828 173.06494141 C-93.62490723 173.6645166 -93.31182617 174.2640918 -92.98925781 174.88183594 C-85.7628596 188.58865691 -76.50051865 200.84272076 -65.70361328 211.92822266 C-63.93798828 214.06494141 -63.93798828 214.06494141 -63.93798828 217.06494141 C-65.40673828 218.61134338 -65.40673828 218.61134338 -67.43798828 220.25854492 C-71.84064821 223.95037887 -75.89246934 227.89108479 -79.93798828 231.96728516 C-80.65913818 232.68985001 -81.38028809 233.41241486 -82.12329102 234.15687561 C-84.39724243 236.43636745 -86.66766782 238.7193338 -88.93798828 241.00244141 C-90.49114063 242.56061647 -92.04452395 244.11856134 -93.59814453 245.67626953 C-97.38076414 249.46983899 -101.16050518 253.26625755 -104.93798828 257.06494141 C-113.39026306 253.02341946 -118.72180001 245.04053053 -123.81298828 237.43994141 C-124.38017578 236.62009766 -124.94736328 235.80025391 -125.53173828 234.95556641 C-128.36978027 230.77248082 -130.66971861 227.02564176 -131.93798828 222.06494141 C-132.59798828 222.06494141 -133.25798828 222.06494141 -133.93798828 222.06494141 C-134.14552734 221.54029297 -134.35306641 221.01564453 -134.56689453 220.47509766 C-136.22670778 216.30125765 -137.90125939 212.13705617 -139.65673828 208.00244141 C-151.46169859 180.11526995 -154.60700556 145.64107177 -146.93798828 116.06494141 C-146.75574707 115.35208984 -146.57350586 114.63923828 -146.38574219 113.90478516 C-144.03315428 104.86392937 -141.04561188 96.47124087 -136.93798828 88.06494141 C-136.30934626 86.56646411 -135.68423211 85.06650096 -135.06298828 83.56494141 C-132.60143513 78.03136992 -129.3240566 73.0710383 -125.93798828 68.06494141 C-125.34115234 67.17806641 -124.74431641 66.29119141 -124.12939453 65.37744141 C-119.10109199 58.18519162 -113.36131732 51.81726749 -107.30419922 45.49414062 C-106.15295934 44.28982357 -105.01638991 43.07150743 -103.88330078 41.85009766 C-76.72470189 13.35105289 -38.89722492 -1.02245568 0 0 Z " fill="#FCFDFD" transform="translate(270.93798828125,121.93505859375)"/>
	<path d="M0 0 C4.46027239 4.14278772 8.46766318 8.75057777 12.5390625 13.27148438 C14.74669712 15.69139155 16.84844534 17.88171936 19.4375 19.90234375 C21.55065614 21.63216821 23.00723298 23.13018501 24.72875977 25.20019531 C30.08433855 31.3792721 35.96835159 37.04486979 41.77784538 42.79187965 C43.93647324 44.92830978 46.09096081 47.06883505 48.24427795 49.21061707 C54.36116296 55.29405054 60.48235703 61.37309863 66.61352539 67.44213867 C70.37564981 71.16671938 74.1305095 74.89849062 77.88073921 78.63504601 C79.30978949 80.05602816 80.74161469 81.47422516 82.17622185 82.88959694 C84.17244604 84.85948401 86.15933154 86.83834814 88.14428711 88.81958008 C88.7410878 89.4040239 89.33788849 89.98846771 89.95277405 90.59062195 C94 94.65804493 94 94.65804493 94 98 C92.671875 99.40234375 92.671875 99.40234375 90.75 100.9375 C86.78542471 104.24606643 83.13183546 107.7738725 79.5 111.4375 C78.95956055 111.98204834 78.41912109 112.52659668 77.86230469 113.08764648 C76.57283984 114.38975721 75.2861214 115.69458678 74 117 C70.72992369 115.56523742 68.54666501 113.80343602 66.01957703 111.29373169 C65.23853104 110.52266083 64.45748505 109.75158997 63.652771 108.95715332 C62.80531311 108.11036011 61.95785522 107.26356689 61.0847168 106.39111328 C60.18519791 105.49991791 59.28567902 104.60872253 58.35890198 103.69052124 C55.89561707 101.24915147 53.43890897 98.80126721 50.98401618 96.35146189 C49.45062087 94.82171128 47.91593585 93.29326669 46.38080788 91.76525497 C41.02736833 86.43629192 35.67965746 81.1016487 30.33666992 75.76220703 C25.35192682 70.78110591 20.3541844 65.81331081 15.35040158 60.85134327 C11.05617177 56.59174975 6.77155796 52.32264229 2.49426204 48.04604518 C-0.06127595 45.49130177 -2.62067157 42.94072905 -5.1899662 40.39981461 C-8.05117358 37.56951197 -10.89218369 34.71974992 -13.73168945 31.86767578 C-14.58926849 31.02493103 -15.44684753 30.18218628 -16.33041382 29.31390381 C-17.09736069 28.5371933 -17.86430756 27.76048279 -18.65449524 26.9602356 C-19.32866139 26.28808077 -20.00282755 25.61592594 -20.69742298 24.92340279 C-22 23 -22 23 -21.82321453 20.88987541 C-20.64597779 18.18726183 -18.90064343 16.5293766 -16.81640625 14.453125 C-15.97142578 13.60878906 -15.12644531 12.76445312 -14.25585938 11.89453125 C-13.36705078 11.02183594 -12.47824219 10.14914062 -11.5625 9.25 C-10.67755859 8.36183594 -9.79261719 7.47367187 -8.88085938 6.55859375 C-2.26685508 0 -2.26685508 0 0 0 Z " fill="#FBFCFD" transform="translate(295,273)"/>
	<path d="M0 0 C0.66 0.33 1.32 0.66 2 1 C0.515 2.485 0.515 2.485 -1 4 C4.445 3.505 4.445 3.505 10 3 C8.02 3.99 8.02 3.99 6 5 C11.94 5.99 11.94 5.99 18 7 C18 7.33 18 7.66 18 8 C9.75 8 1.5 8 -7 8 C-1 1 -1 1 0 0 Z " fill="#C5D4E2" transform="translate(173,158)"/>
	<path d="M0 0 C-1.98 0.99 -1.98 0.99 -4 2 C-1.69 2.33 0.62 2.66 3 3 C3 3.33 3 3.66 3 4 C-1.95 4 -6.9 4 -12 4 C-7.97710193 -0.02289807 -5.54067167 -0.15390755 0 0 Z " fill="#6B91B6" transform="translate(183,161)"/>
	<path d="M0 0 C0.33 1.32 0.66 2.64 1 4 C0.01 4.495 0.01 4.495 -1 5 C-1.65555119 7.52733235 -1.65555119 7.52733235 -2 10 C-2.66 9.01 -3.32 8.02 -4 7 C-5.32 7.99 -6.64 8.98 -8 10 C-6.34908222 5.70761377 -3.26245434 3.1206085 0 0 Z " fill="#D1DDE8" transform="translate(165,166)"/>
	<path d="M0 0 C0.33 0 0.66 0 1 0 C1 5.28 1 10.56 1 16 C0.67 16 0.34 16 0 16 C-0.2165625 14.63875 -0.2165625 14.63875 -0.4375 13.25 C-0.88140925 10.17254866 -0.88140925 10.17254866 -1.6875 8 C-2.15417803 5.01326058 -1.06993265 2.76923745 0 0 Z " fill="#255E95" transform="translate(163,173)"/>
</svg>
